<?xml version="1.0" encoding="UTF-8" standalone="no"?>
<svg
   xmlns:dc="http://purl.org/dc/elements/1.1/"
   xmlns:cc="http://creativecommons.org/ns#"
   xmlns:rdf="http://www.w3.org/1999/02/22-rdf-syntax-ns#"
   xmlns:svg="http://www.w3.org/2000/svg"
   xmlns="http://www.w3.org/2000/svg"
   xmlns:sodipodi="http://sodipodi.sourceforge.net/DTD/sodipodi-0.dtd"
   xmlns:inkscape="http://www.inkscape.org/namespaces/inkscape"
   viewBox="0 0 564.23913 363.94422"
   version="1.1"
   id="svg114"
   sodipodi:docname="usa-map-states-color-blank.svg"
   width="564.23914"
   height="363.94421"
   inkscape:version="0.92.3 (2405546, 2018-03-11)">
  <metadata
     id="metadata120">
    <rdf:RDF>
      <cc:Work
         rdf:about="">
        <dc:format>image/svg+xml</dc:format>
        <dc:type
           rdf:resource="http://purl.org/dc/dcmitype/StillImage" />
        <dc:title></dc:title>
      </cc:Work>
    </rdf:RDF>
  </metadata>
  <defs
     id="defs118" />
  <sodipodi:namedview
     pagecolor="#ffffff"
     bordercolor="#666666"
     borderopacity="1"
     objecttolerance="10"
     gridtolerance="10"
     guidetolerance="10"
     inkscape:pageopacity="0"
     inkscape:pageshadow="2"
     inkscape:window-width="1280"
     inkscape:window-height="737"
     id="namedview116"
     showgrid="false"
     fit-margin-top="10"
     fit-margin-left="10"
     fit-margin-bottom="10"
     fit-margin-right="10"
     inkscape:showpageshadow="false"
     inkscape:zoom="0.61790255"
     inkscape:cx="127.68053"
     inkscape:cy="32.724464"
     inkscape:window-x="-8"
     inkscape:window-y="-8"
     inkscape:window-maximized="1"
     inkscape:current-layer="svg114" />
  <g
     transform="matrix(0.97176694,0,0,0.97205727,806.01014,67.010501)"
     id="g112"
     style="stroke:#000000;stroke-width:0.80237287">
    <path
       d="m -297.5,-8.1378 3,-6 -1,-9 v -8 l 3,-8 h 3 l 2,1 5,-4 4,1 3,6 2,9 2,3 4,1 2,4 4,1 2,3 -6,6 -8,7 -1,4 -4,5 -5,5 -2,8 -6,-9 -3,-8 z"
       id="path2"
       inkscape:connector-curvature="0"
       style="fill:#8200e7;stroke-width:0.64380223" />
    <path
       d="m -301.5,-4.1378 4,-4 3,12 3,8 6,9 -1,4 -6,2 -9,4 -2,-9 1,-13 2,-4 -1,-3 z"
       id="path4"
       inkscape:connector-curvature="0"
       style="fill:#e79e00;stroke-width:0.64380223" />
    <path
       d="m -308.5,31.862 7,-1 -2,-9 1,-13 2,-4 -1,-3 v -3 l -8,1 -8,3 v 5 l 2,5 1,8 h 2 l 2,9 z"
       id="path6"
       inkscape:connector-curvature="0"
       style="fill:#44eb44;stroke-width:0.64380223" />
    <path
       d="m -308.5,41.862 v -10 l 7,-1 15,-6 3,1 -1,4 3,3 4,3 h 3 l -2,-3 h 3 l 2,3 -1,2 -4,3 1,3 h -4 l -1,-3 h -3 l -5,-4 z"
       id="path8"
       inkscape:connector-curvature="0"
       style="fill:#577bf2;stroke-width:0.64380223" />
    <path
       d="m -289.5,46.862 -2,-9 3,-1 3,3 v 5 z"
       id="path10"
       inkscape:connector-curvature="0"
       style="fill:#e70b00;stroke-width:0.64380223" />
    <path
       d="m -305.5,56.862 12,-8 h 4 v -2 l -2,-9 -17,4 v 4 z"
       id="path12"
       inkscape:connector-curvature="0"
       style="fill:#edcf39;stroke-width:0.64380223" />
    <path
       d="m -369.5,58.862 v -5 l 7,-6 -3,-9 16,-1 9,-7 v -7 l -3,-2 13,-15 13,-4 v 5 l 2,5 1,8 h 2 l 2,9 2,2 v 14 l 3,11 h 4 l 9,-5 2,1 -12,9 -4,-1 v -3 l -7,-2 -9,-2 -1,-4 -4,-1 h -6 l -12,5 h -4 z"
       id="path14"
       inkscape:connector-curvature="0"
       style="fill:#e74a00;stroke-width:0.64380223" />
    <path
       d="m -317.5,54.862 -2,6 1,6 4,4 -6,8 2,5 1,-1 6,4 4,-7 1,-5 v -5 l -1,-4 -2,-2 1,-2 2,-1 v -3 z"
       id="path16"
       inkscape:connector-curvature="0"
       style="fill:#e600e7;stroke-width:0.64380223" />
    <path
       d="m -310.5,93.862 -8,-9 v -1 l -2,-4 1,6 2,10 h 7 z"
       id="path18"
       inkscape:connector-curvature="0"
       style="fill:#e82e5a;stroke-width:0.64380223" />
    <path
       d="m -359.5,88.862 c 2,0 39,-10 39,-10 v 2 l 3,15 h 6 v 5 l -5,2 -1,-1 -5,-4 -5,-11 1,10 2,4 h -5 l -4,-1 v -2 l 1,-2 -1,-3 -5,-1 -3,-2 -2,-3 h -4 l -1,2 -4,1 -5,6 z"
       id="path20"
       inkscape:connector-curvature="0"
       style="fill:#b9f041;stroke-width:0.64380223" />
    <path
       d="m -369.5,53.862 -8,8 3,6 2,14 2,8 11,-1 39,-10 6,-8 -4,-4 -1,-6 2,-6 -5,-1 -1,-4 -4,-1 h -6 l -12,5 h -4 l -20,5 z"
       id="path22"
       inkscape:connector-curvature="0"
       style="fill:#86ff7b;stroke-width:0.64380223" />
    <path
       d="m -413.5,105.86 -5,-34 3,-1 12,-2 4,2 h 6 l 6,-2 10,-7 3,6 2,13 -1,11 -2,4 -6,4 v 4 l -3,1 -1,4 -1,3 h -4 l -3,-3 -2,2 h -6 l -1,-1 h -4 l -2,-3 z"
       id="path24"
       inkscape:connector-curvature="0"
       style="fill:#7bd3ff;stroke-width:0.64380223" />
    <path
       d="m -388.5,111.86 v 4 l 3,4 9,6 6,-1 3,-2 5,-3 v -6 l 2,-3 1,-4 5,-3 3,-4 4,-5 -1,-3 4,-1 3,2 2,-2 -2,-1 -2,-3 h -4 l -1,2 -4,1 -5,6 -2,-7 -11,1 -2,-8 -1,10 -2,4 -6,4 v 4 l -3,1 -2,7 z"
       id="path26"
       inkscape:connector-curvature="0"
       style="fill:#b67bff;stroke-width:0.64380223" />
    <path
       d="m -396.5,137.86 c 2,1 22,-3 22,-3 l 49,-9 12,-4 -2,-4 h -5 l -3,-3 2,-3 -3,-4 3,-1 -4,-3 -5,-2 -3,-2 v -2 l 1,-2 -1,-3 -5,-1 -1,-1 -2,2 -3,-2 -4,1 1,3 -7,9 -5,3 -1,4 -2,3 v 6 l -8,5 -6,1 -4,-3 -10,11 z"
       id="path28"
       inkscape:connector-curvature="0"
       style="fill:#ee87f3;stroke-width:0.64380223" />
    <path
       d="m -315.5,103.86 -1,5 v 5 l 3,-4 v -5 z"
       id="path30"
       inkscape:connector-curvature="0"
       style="fill:#ee87f3;stroke-width:0.64380223" />
    <path
       d="m -374.5,134.86 49,-9 12,-4 1,3 -2,3 -4,2 v 1 h 6 l 3,1 1,3 -2,2 -8,2 1,2 3,3 v 3 l -5,2 -2,2 -6,6 v 4 l -3,1 -5,2 h -2 l -9,-8 -4,-1 -7,1 -2,2 h -3 v -3 l -2,-2 -3,1 h -10 l -5,2 -6,4 h -13 v -3 l 4,-4 5,-2 7,-6 3,-1 6,-4 2,-2 z"
       id="path32"
       inkscape:connector-curvature="0"
       style="fill:#f0f387;stroke-width:0.64380223" />
    <path
       d="m -388.5,159.86 v 4 l 2,2 h 3 l 5,6 12,10 3,3 1,3 3,3 2,3 h 2 l 1,-5 1,-2 h 4 l 3,-3 v -3 l 3,-3 3,-2 v -4 l 3,-4 3,-4 h -3 l -9,-8 -4,-1 -7,1 -2,2 h -3 v -3 l -2,-2 -3,1 h -10 l -5,2 z"
       id="path34"
       inkscape:connector-curvature="0"
       style="fill:#da8026;stroke-width:0.64380223" />
    <path
       d="m -415.5,162.86 3,-1 11,-2 h 13 v 4 l 2,2 h 3 l 5,6 15,13 1,3 3,3 2,3 -1,3 -2,3 v 13 h -6 l -1,5 h -9 l -23,1 -3,-3 -2,-11 2,-6 -8,-19 z"
       id="path36"
       inkscape:connector-curvature="0"
       style="fill:#b36ce6;stroke-width:0.64380223" />
    <path
       d="m -429.5,227.86 -3,-8 13,-2 17,-2 3,3 23,-1 h 9 l 1,-5 h 6 l 4,13 9,12 1,6 10,14 2,3 1,20 -2,4 -6,1 -3,-1 -5,-6 -5,-1 -2,-7 -2,-1 -1,-4 h -3 l -3,-5 v -6 l -1,-2 h -3 l -2,1 -1,-3 2,-3 v -8 l -8,-5 -7,-6 -6,-1 -8,8 -4,-1 -4,-7 -7,-1 -3,-1 z"
       id="path38"
       inkscape:connector-curvature="0"
       style="fill:#cfb823;stroke-width:0.64380223" />
    <path
       d="m -443.5,166.86 c 2,0 16,-2 16,-2 l 12,-2 5,17 8,19 -2,6 2,11 -30,4 3,8 -5,3 h -6 l -2,-25 z"
       id="path40"
       inkscape:connector-curvature="0"
       style="fill:#23bdcf;stroke-width:0.64380223" />
    <path
       d="m -450.5,235.86 1,-2 h 7 l 2,-3 -2,-25 -1,-39 -22,1 -4,3 v 6 l -6,9 1,15 3,4 -1,3 -4,4 -2,8 v 4 l 15,-1 5,-1 1,6 2,1 2,5 z"
       id="path42"
       inkscape:connector-curvature="0"
       style="fill:#86eb94;stroke-width:0.64380223" />
    <path
       d="m -504.5,241.86 c 1,-1 2,-7 2,-7 l -1,-5 3,-5 -4,-7 -3,-7 v -13 h 21 l 12,-1 v 4 l 3,4 -1,3 -4,4 -2,8 v 4 l 15,-1 5,-1 1,6 2,1 2,5 3,2 -2,4 -1,1 v 2 l 7,2 v 3 l -2,2 -4,-2 -5,-4 v 3 l -3,1 -5,-1 -4,2 -4,-1 -4,-5 -2,-2 -3,2 -6,1 -5,-2 z"
       id="path44"
       inkscape:connector-curvature="0"
       style="fill:#b386eb;stroke-width:0.64380223" />
    <path
       d="m -507.5,190.86 v 7 h 21 l 12,-1 -1,-11 6,-9 v -6 l 4,-3 v -7 l 2,-3 -1,-3 -2,-2 1,-4 h -8 l -2,1 h -14 l -26,1 v 2 l 1,9 1,5 1,23 h 5 z"
       id="path46"
       inkscape:connector-curvature="0"
       style="fill:#dc852d;stroke-width:0.64380223" />
    <path
       d="m -465.5,167.86 v -7 l 2,-3 2,-5 1,-4 2,-2 h 13 l 7,-2 14,-2 16,-2 9,-1 3,-2 h 1 l 21,-3 v 3 l -8,6 -3,1 -7,6 -5,2 -4,4 v 3 l -11,2 -3,1 -28,4 z"
       id="path48"
       inkscape:connector-curvature="0"
       style="fill:#d32ddc;stroke-width:0.64380223" />
    <path
       d="m -458.5,146.86 2,-3 v -5 l 1,-2 h 5 l 5,-8 1,-2 9,-1 6,-1 v -3 h 2 l 2,2 2,-1 1,-4 3,-4 v -2 h 4 l 2,-2 v -5 l 5,1 2,3 h 4 l 1,1 h 6 l 2,-2 3,3 h 2 v 4 l 3,4 5,3 -10,11 -9,6 -39,5 -7,2 z"
       id="path50"
       inkscape:connector-curvature="0"
       style="fill:#e2c550;stroke-width:0.64380223" />
    <path
       d="m -445.5,128.86 v -7 l 3,-5 1,-4 -1,-2 v -4 l 1,-3 -1,-1 v -7 l -1,-3 -1,-6 v -11 h 5 l 2,-2 9,-2 h 10 l 5,34 v 5 l -2,2 h -4 v 2 l -3,4 -1,4 -2,1 -2,-2 h -2 v 3 l -6,1 -9,1 z"
       id="path52"
       inkscape:connector-curvature="0"
       style="fill:#e250be;stroke-width:0.64380223" />
    <path
       d="m -437.27,73.923 8.7672,-2.0604 h 10 l 3,-1 12,-2 v -6 l 6,-7 v -6 l -2,-4 -2,-8 -2,-2 -2,2 -6,7 -2,-1 -1,-3 4,-6 1,-1 v -6 l -2,-2 v -4 l -3,-1 -4,-1 -5,-3 h -2 l -3,2 v 4 l -1,1 -1,4 -1,3 h -4 l -1,2 v 5 l -2,4 v 7 l 2,4 2,3 v 10 l -2,4 -0.76724,4.0604 z"
       id="path54"
       inkscape:connector-curvature="0"
       style="fill:#e87597;stroke-width:0.64380223" />
    <path
       d="m -452.5,28.862 -1,-4 -1,-3 -5,-4 h -6 l -1,-1 -8,-1 -4,-5 9,-4 9,-8 2,1 -3,4 v 3 l 6,-1 5,4 h 7 l 3,-3 9,-3 1,3 h 3 l 6,-1 1,4 -1,3 -8,1 -3,-1 -5,3 h -4 l -2,3 -3,1 z"
       id="path56"
       inkscape:connector-curvature="0"
       style="fill:#e87597;stroke-width:0.64380223" />
    <path
       d="m -450.31,64.979 c -0.19397,-0.11638 -27.194,1.8836 -27.194,1.8836 l -5,-3 -2,-2 v -7 l -1,-6 -9,-8 -6,-2 -1,-11 -1,-1 1,-4 4,-2 v -8 l 3,-2 6,-2 3,1 7,1 4,5 8,1 1,1 h 6 l 5,4 2,10 -2,2 v 4 l 4,-4 3,-4 -1,5 -1,7 -2,4 1.194,19.116 z"
       id="path58"
       inkscape:connector-curvature="0"
       style="fill:#e68719;stroke-width:0.64380223" />
    <path
       d="m -450.5,64.862 6,11 v 11 l 1,6 1,3 v 7 l 1,1 -1,3 v 4 l 1,2 -1,4 -3,5 v 6 l -5,9 h -5 l -1,2 -1,1 h -2 l -3,-9 -2,-3 -5,-1 -2,-3 1,-2 v -6 l -4,-1 -1,-3 -8,-7 -1,-9 1,-3 3,-4 1,-3 -2,-1 1,-2 5,-3 3,-5 v -2 l -5,-6 z"
       id="path60"
       inkscape:connector-curvature="0"
       style="fill:#8d7ce9;stroke-width:0.64380223" />
    <path
       d="m -515.5,150.86 25,-1 h 15 l 2,-1 h 8 l -1,4 2,2 1,3 3,-7 v -2 l 2,-2 2,-3 v -5 l -1,1 h -2 l -3,-9 -2,-3 -5,-1 -2,-3 1,-2 v -6 l -4,-1 -1,-3 -8,-7 -1,-9 -3,-1 h -42 l 1,4 7,6 2,1 -1,2 -1,2 1,3 4,3 v 28 c 0,1 1.2155,7.1078 1,7 z"
       id="path62"
       inkscape:connector-curvature="0"
       style="fill:#fcb5d8;stroke-width:0.64380223" />
    <path
       d="m -536.5,55.862 v 13 l 4,11 3,15 h 42 l 3,1 1,-3 3,-4 1,-3 -2,-1 1,-2 5,-3 3,-5 v -2 l -5,-6 -5,-3 -2,-2 v -8 l -23,1 z"
       id="path64"
       inkscape:connector-curvature="0"
       style="fill:#b5fcbc;stroke-width:0.64380223" />
    <path
       d="m -536.5,55.862 v -25 l -3,-3 -1,-2 3,-3 v -6 l -2,-9 -3,-14 v -13 h 21 l 9,6 h 3 l 2,-1 6,1 2,3 3,-1 3,2 h 5 l 2,-1 h 3 l 2,2 h 8 l -9,5 -7,7 -8,9 v 8 l -4,2 -1,4 1,1 1,11 6,2 9,8 1,5 -21,1 z"
       id="path66"
       inkscape:connector-curvature="0"
       style="fill:#1a85f6;stroke-width:0.64380223" />
    <path
       d="m -542.5,-19.138 -32,-1 -30,-2 -1,22 -2,20 33,2 37,1 v -6 l -5,-23 z"
       id="path68"
       inkscape:connector-curvature="0"
       style="fill:#e61af6;stroke-width:0.64380223" />
    <path
       d="m -607.5,19.862 -1,12 -3,28 54,3 5,3 9,-1 5,3 h 2 v -37 l -3,-3 -1,-2 3,-3 -37,-1 z"
       id="path70"
       inkscape:connector-curvature="0"
       style="fill:#f0f61a;stroke-width:0.64380223" />
    <path
       d="m -611.5,59.862 -2,26 20,2 v 13 l 34,2 36,1 -5,-5 -1,-4 -3,-15 -4,-11 v -1 h -2 l -5,-3 -9,1 -5,-3 -24,-1 z"
       id="path72"
       inkscape:connector-curvature="0"
       style="fill:#8780ee;stroke-width:0.64380223" />
    <path
       d="m -593.5,100.86 -2,41 37,2 h 42 v -28 l -4,-3 -1,-3 2,-4 -3,-2 -38,-1 z"
       id="path74"
       inkscape:connector-curvature="0"
       style="fill:#eed580;stroke-width:0.64380223" />
    <path
       d="m -606.5,141.86 v 6 l 31,2 1,3 -1,24 3,2 h 5 l 3,3 6,2 4,-1 3,3 7,1 8,-1 2,2 3,-1 6,-1 h 6 l 7,4 -1,-23 -1,-5 -1,-9 v -2 l -1,-7 h -42 l -37,-2 z"
       id="path76"
       inkscape:connector-curvature="0"
       style="fill:#b480ee;stroke-width:0.64380223" />
    <path
       d="m -606.5,147.86 h -1 l -4,61 -42,-3 v 3 l 19,19 3,12 16,10 3,-2 5,-8 3,-1 5,1 5,1 7,6 3,8 5,9 7,8 1,6 6,10 8,4 h 7 l 2,3 h 3 v -6 l -2,-13 3,-8 3,-6 6,-5 6,-1 h 6 l 2,-3 4,-4 -1,-5 3,-2 2,4 3,-1 6,-3 1,-2 1,-5 -1,-5 3,-5 -4,-7 -3,-7 v -21 h -5 l -7,-4 h -6 l -5,1 -4,1 -2,-2 -8,1 -7,-1 -3,-3 -4,1 -6,-2 -3,-3 h -5 l -3,-2 1,-24 -1,-3 z"
       id="path78"
       inkscape:connector-curvature="0"
       style="fill:#fbfb73;stroke-width:0.64380223" />
    <path
       d="m -672.5,134.86 -9,76 9,1 2,-5 3,-1 14,3 v -3 l 42,3 4,-61 1,-6 -30,-3 z"
       id="path80"
       inkscape:connector-curvature="0"
       style="fill:#ccfdae;stroke-width:0.64380223" />
    <path
       d="m -664.5,80.862 -8,54 66,7 h 11 l 2,-41 v -13 l -20,-2 -23,-2 z"
       id="path82"
       inkscape:connector-curvature="0"
       style="fill:#fb5af8;stroke-width:0.64380223" />
    <path
       d="m -685.5,76.862 21,4 51,5 2,-26 3,-27 -30,-3 -37,-7 z"
       id="path84"
       inkscape:connector-curvature="0"
       style="fill:#bd1e71;stroke-width:0.64380223" />
    <path
       d="m -604.5,-22.138 -1,23 -2,19 -1,13 -30,-3 -37,-7 -1,5 -3,-1 -3,1 h -12 l -2,-5 -2,-1 -2,-13 h -3 l -1,2 -2,-3 1,-5 4,-8 -6,-4 v -6 l -4,-2 -1,-8 v -7 l 2,-2 1,-6 17,4 36,7 28,4 z"
       id="path86"
       inkscape:connector-curvature="0"
       style="fill:#d7f0a3;stroke-width:0.64380223" />
    <path
       d="m -709.5,-40.138 -8,-2 -10,39 3,4 -1,5 -11,12 2,3 1,4 -2,3 -1,5 -4,18 29,7 28,6 7,-36 -3,-1 -3,1 h -12 l -2,-5 -2,-1 -2,-13 h -3 l -1,2 -2,-3 1,-5 4,-8 -6,-4 v -6 l -4,-2 -1,-8 v -7 l 2,-2 z"
       id="path88"
       inkscape:connector-curvature="0"
       style="fill:#c4a3f0;stroke-width:0.64380223" />
    <path
       d="m -711.5,57.862 -14,67 53,10 8,-54 -21,-4 2,-13 z"
       id="path90"
       inkscape:connector-curvature="0"
       style="fill:#dd9e2f;stroke-width:0.64380223" />
    <path
       d="m -672.5,134.86 -9,76 -24,-4 -40,-24 1,-2 4,-1 v -3 l -2,-1 v -4 l 4,-4 v -4 l 5,-4 -2,-5 -2,-5 2,-3 -1,-12 h 4 l 2,3 4,-1 v -5 l 1,-7 z"
       id="path92"
       inkscape:connector-curvature="0"
       style="fill:#6db6e3;stroke-width:0.64380223" />
    <path
       d="m -744.5,180.86 -27,-4 -1,-9 -6,-10 -3,-2 v -3 l -2,-1 h -6 l -1,-4 -4,-3 -5,-2 -4,-4 v -3 l 2,-2 -2,-5 -8,-19 1,-2 h 2 l 1,-3 -5,-4 v -7 l 1,-2 3,2 1,-3 -1,-3 -3,1 -3,-2 v -7 l -4,-5 v -10 l 2,-2 v -6 l -2,-2 v -6 l 3,-2 4,-7 1,-11 40,15 -11,37 44,69 4,10 -5,4 v 4 l -4,4 v 4 l 2,1 v 3 z"
       id="path94"
       inkscape:connector-curvature="0"
       style="fill:#e35ae4;stroke-width:0.64380223" />
    <path
       d="m -781.5,80.862 44,69 2,-3 -1,-12 h 4 l 2,3 4,-1 v -5 l 1,-7 14,-67 -29,-7 -30,-7 z"
       id="path96"
       inkscape:connector-curvature="0"
       style="fill:#8a7be9;stroke-width:0.64380223" />
    <path
       d="m -810.5,28.862 40,15 30,7 5,-23 2,-3 -1,-4 -2,-3 11,-12 1,-5 -3,-4 -6,-1 -11,-4 h -12 l -10,-1 -4,-2 h -8 l -3,-2 1,-2 1,-3 -3,-3 -1,-2 -6,-1 -3,10 -10,21 -8,12 z"
       id="path98"
       inkscape:connector-curvature="0"
       style="fill:#e9e77b;stroke-width:0.64380223" />
    <path
       d="m -789.53,-24.138 2.0302,-6 v -8 l 1,-10 v -5 c 0,0 2,-2 3,-2 1,0 10,9 10,9 l 2,4 -3,4 -1,5 4,1 2,-6 3,-3 -1,-7 2,-4 -1,-6 15,6 34,10 -10,39 -6,-1 -11,-4 h -12 l -10,-1 -4,-2 h -8 l -3,-2 2,-5 -3,-3 -1,-2 z"
       id="path100"
       inkscape:connector-curvature="0"
       style="fill:#dd6c31;stroke-width:0.64380223" />
    <path
       d="m -799.5,190.86 1,5 h 3 l 2,-3 v -3 l -3,-2 h -3 z"
       id="path102"
       inkscape:connector-curvature="0"
       style="fill:#dd3d31;stroke-width:0.64380223" />
    <path
       d="m -802.5,185.86 3,-1 -1,-1 -2,1 z"
       id="path104"
       inkscape:connector-curvature="0"
       style="fill:none;stroke-width:0.64380223" />
    <path
       d="m -810.5,182.86 2,-1 -1,-2 -2,1 z"
       id="path106"
       inkscape:connector-curvature="0"
       style="fill:none;stroke-width:0.64380223" />
    <path
       d="m -817.66,178.88 1.1552,-1.0172 -2,-1 0.84483,2.0172 z"
       id="path108"
       inkscape:connector-curvature="0"
       style="fill:none;stroke-width:0.64380223" />
    <path
       d="m -712.81,271.77 -0.69397,-45.905 -10,-1 -11,-6 h -7 l -7,6 -4,-1 -2,3 7,10 -2,3 -4,-4 h -5 l -2,3 1,5 6,3 3,2 -2,2 h -5 l -6,5 -1,5 2,5 3,2 -1,5 6,2 h 7 v 3 l -6,4 -8,5 -8,3 -9,3 21,-3 6,-4 6,-5 4,-2 2,-4 -2,-3 5,-2 -1,5 h 5 l 1,-3 3,1 v -5 h 4 l 4,4 7.694,-0.0948 z"
       id="path110"
       inkscape:connector-curvature="0"
       style="fill:#ddb231;stroke-width:0.64380223" />
  </g>
  <text
     xml:space="preserve"
     style="font-style:normal;font-variant:normal;font-weight:normal;font-stretch:normal;font-size:9.35803127px;line-height:1.25;font-family:sans-serif;font-variant-ligatures:normal;font-variant-position:normal;font-variant-caps:normal;font-variant-numeric:normal;font-variant-alternates:normal;font-feature-settings:normal;text-indent:0;text-align:start;text-decoration:none;text-decoration-line:none;text-decoration-style:solid;text-decoration-color:#000000;letter-spacing:0px;word-spacing:0px;text-transform:none;writing-mode:lr-tb;direction:ltr;text-orientation:mixed;dominant-baseline:auto;baseline-shift:baseline;text-anchor:start;white-space:normal;shape-padding:0;opacity:1;vector-effect:none;fill:#646464;fill-opacity:1;stroke:none;stroke-width:1.55967188;stroke-linecap:butt;stroke-linejoin:miter;stroke-miterlimit:4;stroke-dasharray:none;stroke-dashoffset:0;stroke-opacity:1"
     x="310.14655"
     y="352.27704"
     id="text929"><tspan
       sodipodi:role="line"
       id="tspan927"
       x="310.14655"
       y="352.27704"
       style="stroke-width:1.55967188">SunCatcherStudio.com</tspan></text>
</svg>
